{"title":"The World's Greatest Players -football by-{zinkslane}","uid":8455551,"size":662856698,"categoryP":"video","categoryS":"tv_shows","magnet":"?xt=urn:btih:85a10a6ab9f0580a352735deb0a542a0429562e6&amp;dn=The+World%27s+Greatest+Players+-football+by-%7Bzinkslane%7D&amp;tr=udp%3A%2F%2Ftracker.openbittorrent.com%3A80&amp;tr=udp%3A%2F%2Fopen.demonii.com%3A1337&amp;tr=udp%3A%2F%2Ftracker.coppersurfer.tk%3A6969&amp;tr=udp%3A%2F%2Fexodus.desync.com%3A6969","seeders":0,"leechers":1,"uploader":"zinkslane","files":8,"time":1368100213,"description":"General\nComplete name : The World's Greatest Players -football by-{zinkslane}The World's Greatest Players - football by-{zinkslane}.avi\nFormat : AVI\nFormat/Info : Audio Video Interleave\nFile size : 596 MiB\nDuration : 51mn 12s\nOverall bit rate : 1 626 Kbps\nWriting application : DigiArty AV Encoder Core\n\nVideo\nID : 0\nFormat : MPEG-4 Visual\nFormat profile : Simple@L1\nFormat settings, BVOP : No\nFormat settings, QPel : No\nFormat settings, GMC : No warppoints\nFormat settings, Matrix : Default (H.263)\nCodec ID : DX50\nCodec ID/Hint : DivX 5\nDuration : 51mn 12s\nBit rate : 1 484 Kbps\nWidth : 720 pixels\nHeight : 404 pixels\nDisplay aspect ratio : 16:9\nFrame rate : 29.970 fps\nColor space : YUV\nChroma subsampling : 4:2:0\nBit depth : 8 bits\nScan type : Progressive\nCompression mode : Lossy\nBits/(Pixel*Frame) : 0.170\nStream size : 544 MiB (91%)\nWriting library : DigiArty AV Encoder Core\n\nAudio\nID : 1\nFormat : MPEG Audio\nFormat version : Version 1\nFormat profile : Layer 3\nCodec ID : 55\nCodec ID/Hint : MP3\nDuration : 51mn 12s\nBit rate mode : Constant\nBit rate : 128 Kbps\nChannel(s) : 2 channels\nSampling rate : 48.0 KHz\nCompression mode : Lossy\nStream size : 46.9 MiB (8%)\nAlignment : Aligned on interleaves\nInterleave, duration : 24 ms (0.72 video frame)\nInterleave, preload duration : 24 ms\nWriting library : LAME3.98.2\n\n\nseedin will be slow be patient..:)\ndo share seed n' enjoy....\n\n\n","torrent":{"xt":"urn:btih:85a10a6ab9f0580a352735deb0a542a0429562e6","amp;dn":"The+World%27s+Greatest+Players+-football+by-%7Bzinkslane%7D","amp;tr":["udp%3A%2F%2Ftracker.openbittorrent.com%3A80","udp%3A%2F%2Fopen.demonii.com%3A1337","udp%3A%2F%2Ftracker.coppersurfer.tk%3A6969","udp%3A%2F%2Fexodus.desync.com%3A6969"],"infoHash":"85a10a6ab9f0580a352735deb0a542a0429562e6","infoHashBuffer":{"type":"Buffer","data":[133,161,10,106,185,240,88,10,53,39,53,222,176,165,66,160,66,149,98,230]},"announce":[],"urlList":[]}}